HIERARCHY
ROOT joint_Root
{
	OFFSET 0.0 0.0 0.0
	CHANNELS 6 Xposition Yposition Zposition Zrotation Xrotation Yrotation 
	JOINT Hips
	{
		OFFSET -17.1583 93.1646 452.98
		CHANNELS 6 Xposition Yposition Zposition Zrotation Xrotation Yrotation 
		JOINT Spine
		{
			OFFSET 15.7357 0.0 0.0
			CHANNELS 6 Xposition Yposition Zposition Zrotation Xrotation Yrotation 
			JOINT Chest
			{
				OFFSET 8.98455 -0.406207 0.0
				CHANNELS 6 Xposition Yposition Zposition Zrotation Xrotation Yrotation 
				JOINT Neck
				{
					OFFSET 16.3773 0.0 0.0
					CHANNELS 6 Xposition Yposition Zposition Zrotation Xrotation Yrotation 
					JOINT Head
					{
						OFFSET 6.45672 0.0 0.0
						CHANNELS 6 Xposition Yposition Zposition Zrotation Xrotation Yrotation 
						End Site
						{
							OFFSET 0.0 0.0 0.0
						}
					}
				}
				JOINT Shoulder_L
				{
					OFFSET 12.9942 -0.242716 4.98039
					CHANNELS 6 Xposition Yposition Zposition Zrotation Xrotation Yrotation 
					JOINT UpperArm_L
					{
						OFFSET 5.34809 0.0 0.0
						CHANNELS 6 Xposition Yposition Zposition Zrotation Xrotation Yrotation 
						JOINT LowerArm_L
						{
							OFFSET 24.3286 1.87007e-05 0.0
							CHANNELS 6 Xposition Yposition Zposition Zrotation Xrotation Yrotation 
							JOINT Hand_L
							{
								OFFSET 22.2916 0.0 0.0
								CHANNELS 6 Xposition Yposition Zposition Zrotation Xrotation Yrotation 
								End Site
								{
									OFFSET 0.0 0.0 0.0
								}
							}
						}
					}
				}
				JOINT Shoulder_R
				{
					OFFSET 12.9945 -0.242716 -4.98039
					CHANNELS 6 Xposition Yposition Zposition Zrotation Xrotation Yrotation 
					JOINT UpperArm_R
					{
						OFFSET -5.34813 0.0 0.0
						CHANNELS 6 Xposition Yposition Zposition Zrotation Xrotation Yrotation 
						JOINT LowerArm_R
						{
							OFFSET -24.3289 0.000322201 0.0
							CHANNELS 6 Xposition Yposition Zposition Zrotation Xrotation Yrotation 
							JOINT Hand_R
							{
								OFFSET -22.2915 -0.000108084 0.0
								CHANNELS 6 Xposition Yposition Zposition Zrotation Xrotation Yrotation 
								End Site
								{
									OFFSET 0.0 0.0 0.0
								}
							}
						}
					}
				}
			}
		}
		JOINT UpperLeg_L
		{
			OFFSET -2.19248 -6.46944 0.0
			CHANNELS 6 Xposition Yposition Zposition Zrotation Xrotation Yrotation 
			JOINT LowerLeg_L
			{
				OFFSET 39.0811 0.0 -1.23785e-05
				CHANNELS 6 Xposition Yposition Zposition Zrotation Xrotation Yrotation 
				JOINT Foot_L
				{
					OFFSET 40.9854 0.0 -1.26872e-05
					CHANNELS 6 Xposition Yposition Zposition Zrotation Xrotation Yrotation 
					JOINT Toes_L
					{
						OFFSET 11.7543 0.0 0.0
						CHANNELS 6 Xposition Yposition Zposition Zrotation Xrotation Yrotation 
						End Site
						{
							OFFSET 0.0 0.0 0.0
						}
					}
				}
			}
		}
		JOINT UpperLeg_R
		{
			OFFSET -2.19251 6.46944 0.0
			CHANNELS 6 Xposition Yposition Zposition Zrotation Xrotation Yrotation 
			JOINT LowerLeg_R
			{
				OFFSET -39.0811 -0.00228153 -0.0401928
				CHANNELS 6 Xposition Yposition Zposition Zrotation Xrotation Yrotation 
				JOINT Foot_R
				{
					OFFSET -40.9854 0.0 0.0
					CHANNELS 6 Xposition Yposition Zposition Zrotation Xrotation Yrotation 
					JOINT Toes_R
					{
						OFFSET -11.7543 0.0 0.0
						CHANNELS 6 Xposition Yposition Zposition Zrotation Xrotation Yrotation 
						End Site
						{
							OFFSET 0.0 0.0 0.0
						}
					}
				}
			}
		}
	}
}
MOTION
Frames:	4
Frame Time:	0.0333333
0.000000 0.000000 0.000000 0.000000 0.000000 -0.000000 3.126370 93.445600 -445.841000 94.657500 -1.181470 -23.214900 15.735700 0.000005 -0.000001 117.877000 83.908100 -118.660000 8.984550 -0.406207 -0.000000 3.056860 5.723290 -1.717490 16.377300 -0.000001 -0.000001 -7.978030 -1.096550 -0.892305 6.456720 -0.000001 -0.000000 -18.141900 -4.758090 -3.326330 12.994200 -0.242716 4.980390 -90.535800 1.513360 -70.501500 5.348090 -0.000007 -0.000001 -44.468000 -13.451300 21.373500 24.328600 0.000019 0.000005 0.128183 32.710900 -0.237086 22.291600 -0.000001 0.000005 24.633100 3.730210 27.859200 12.994500 -0.242716 -4.980390 90.201000 -0.738133 -74.767600 -5.348130 -0.000001 -0.000004 -57.499700 3.303330 -15.056300 -24.328900 0.000322 -0.000009 -4.915380 -0.376389 -85.630800 -22.291500 -0.000108 -0.000004 20.380300 5.601240 -11.410400 -2.192480 -6.469440 -0.000000 174.521000 -2.633200 -54.616400 39.081100 -0.000007 -0.000012 0.000903 -0.000700 52.067800 40.985400 -0.000006 -0.000013 -7.170790 11.356800 -72.532800 11.754300 -0.000000 0.000003 0.002417 0.069743 -13.748100 -2.192510 6.469440 -0.000001 174.231000 16.087600 179.173000 -39.081100 -0.002282 -0.040193 0.034159 -0.122360 14.140600 -40.985400 0.000008 0.000006 0.659194 -1.955410 -37.086500 -11.754300 -0.000006 -0.000006 -0.023663 -0.186793 -24.212400
0.000000 0.000000 0.000000 0.000000 0.000000 -0.000000 2.899060 93.740600 -437.817000 92.809800 0.507615 -21.292100 15.735700 0.000005 -0.000001 119.487000 83.555100 -119.637000 8.984550 -0.406207 -0.000000 3.480750 6.342640 -0.492947 16.377300 -0.000001 -0.000001 -7.674750 -1.425810 -0.780427 6.456720 -0.000001 -0.000000 -17.828500 -5.674490 -3.307820 12.994200 -0.242716 4.980390 -90.911900 2.540990 -70.250500 5.348090 -0.000007 -0.000001 -43.778900 -13.495700 18.811900 24.328600 0.000019 0.000005 0.141955 34.965700 -0.247649 22.291600 -0.000001 0.000005 28.912000 3.562570 30.142800 12.994500 -0.242716 -4.980390 90.177500 -0.669582 -75.155500 -5.348130 -0.000001 -0.000004 -59.887400 2.136460 -12.369400 -24.328900 0.000322 -0.000009 -4.484960 -0.429869 -84.535400 -22.291500 -0.000108 -0.000004 21.555600 5.609960 -11.952000 -2.192480 -6.469440 -0.000000 176.431000 -3.933310 -48.387200 39.081100 -0.000007 -0.000012 -0.017042 0.022480 37.168700 40.985400 -0.000006 -0.000013 -8.468780 17.220600 -74.660100 11.754300 -0.000000 0.000003 0.002406 0.068615 -13.793800 -2.192510 6.469440 -0.000001 176.190000 15.749200 -177.614000 -39.081100 -0.002282 -0.040193 0.067578 -0.218364 16.395800 -40.985400 0.000008 0.000006 0.570722 -1.950400 -25.000600 -11.754300 -0.000006 -0.000006 -0.000120 0.169662 -9.691830
0.000000 0.000000 0.000000 0.000000 0.000000 -0.000000 2.985110 92.915200 -429.560000 91.615900 0.784247 -19.202400 15.735700 0.000005 -0.000001 119.234000 83.177800 -119.089000 8.984550 -0.406207 -0.000000 4.155080 6.648830 0.049533 16.377300 -0.000001 -0.000001 -7.376530 -1.430650 -0.299969 6.456720 -0.000001 -0.000000 -17.093700 -5.556500 -2.975870 12.994200 -0.242716 4.980390 -91.259400 3.534400 -70.373400 5.348090 -0.000007 -0.000001 -46.293500 -12.175400 14.960100 24.328600 0.000019 0.000005 0.000277 33.395300 -0.000004 22.291600 -0.000001 0.000005 25.144500 3.807600 26.855700 12.994500 -0.242716 -4.980390 90.257300 -1.000390 -75.573100 -5.348130 -0.000001 -0.000004 -64.333100 2.215660 -9.448500 -24.328900 0.000322 -0.000009 -4.969750 -1.004900 -78.585500 -22.291500 -0.000108 -0.000004 22.956600 5.614160 -12.230200 -2.192480 -6.469440 -0.000000 178.059000 -4.223830 -42.789800 39.081100 -0.000007 -0.000012 -0.021018 0.037297 29.403200 40.985400 -0.000006 -0.000013 -8.168660 17.274000 -76.831000 11.754300 -0.000000 0.000003 0.002416 0.069575 -13.754900 -2.192510 6.469440 -0.000001 178.800000 7.939400 -176.756000 -39.081100 -0.002282 -0.040193 0.067859 -0.137721 25.111700 -40.985400 0.000008 0.000006 -0.743053 3.367810 -21.206900 -11.754300 -0.000006 -0.000006 0.000361 0.161351 -10.029300
0.000000 0.000000 0.000000 0.000000 0.000000 -0.000000 3.189470 90.904300 -420.961000 91.624500 1.238590 -16.014100 15.735700 0.000005 -0.000001 113.306000 82.548100 -113.274000 8.984550 -0.406207 -0.000000 5.944400 5.880620 -0.240719 16.377300 -0.000001 -0.000001 -7.070700 -1.729950 0.754060 6.456720 -0.000001 -0.000000 -16.734300 -4.866860 -2.167930 12.994200 -0.242716 4.980390 -91.672700 4.805800 -70.782600 5.348090 -0.000007 -0.000001 -50.293800 -10.796100 8.883710 24.328600 0.000019 0.000005 0.000185 30.761700 -0.000003 22.291600 -0.000001 0.000005 16.411300 4.006000 24.099400 12.994500 -0.242716 -4.980390 90.290300 -1.094400 -75.139300 -5.348130 -0.000001 -0.000004 -69.343500 3.335670 -6.307260 -24.328900 0.000322 -0.000009 -3.663770 -1.488450 -67.861800 -22.291500 -0.000108 -0.000004 20.794600 5.591650 -10.810100 -2.192480 -6.469440 -0.000000 178.207000 -3.853900 -38.047300 39.081100 -0.000007 -0.000012 0.117031 -0.186575 32.098100 40.985400 -0.000006 -0.000013 -3.787700 14.637100 -79.820000 11.754300 -0.000000 0.000003 0.002426 0.070667 -13.710700 -2.192510 6.469440 -0.000001 -179.372000 2.180640 -178.411000 -39.081100 -0.002282 -0.040193 0.023525 -0.022834 41.569000 -40.985400 0.000008 0.000006 -2.709230 5.068750 -27.510600 -11.754300 -0.000006 -0.000006 0.000439 0.159913 -10.087700
